<svg version="1.1" viewBox="0.0 0.0 100.0 100.0" fill="none" stroke="none" stroke-linecap="square" stroke-miterlimit="10" xmlns:xlink="http://www.w3.org/1999/xlink" xmlns="http://www.w3.org/2000/svg"><clipPath id="p.0"><path d="m0 0l100.0 0l0 100.0l-100.0 0l0 -100.0z" clip-rule="nonzero"/></clipPath><g clip-path="url(#p.0)"><path fill="#000000" fill-opacity="0.0" d="m0 0l100.0 0l0 100.0l-100.0 0z" fill-rule="evenodd"/><path fill="#3b8de4" d="m50.201347 87.43442c-13.837429 0.067993164 -41.646835 -62.677086 -41.71411 -72.24176c-0.067276955 -9.564672 27.473024 14.92172 41.310448 14.853726c13.837429 -0.06799126 41.64683 -24.82635 41.714108 -15.261678c0.067276 9.5646715 -27.473022 72.58172 -41.310448 72.64971z" fill-rule="evenodd"/><path stroke="#3b8de4" stroke-width="1.0" stroke-linejoin="round" stroke-linecap="butt" d="m50.201347 87.43442c-13.837429 0.067993164 -41.646835 -62.677086 -41.71411 -72.24176c-0.067276955 -9.564672 27.473024 14.92172 41.310448 14.853726c13.837429 -0.06799126 41.64683 -24.82635 41.714108 -15.261678c0.067276 9.5646715 -27.473022 72.58172 -41.310448 72.64971z" fill-rule="evenodd"/></g></svg>